<?xml version="1.0" encoding="UTF-8" standalone="no"?>
<!-- Created with Inkscape (http://www.inkscape.org/) -->

<svg
   version="1.1"
   id="svg433"
   width="322.66666"
   height="324"
   viewBox="0 0 322.66666 324"
   sodipodi:docname="Logo_BMKG_(2010) - Copy.svg"
   inkscape:version="1.2 (dc2aedaf03, 2022-05-15)"
   inkscape:export-filename="Logo_BMKG_(2010) - Copy.svg"
   inkscape:export-xdpi="96"
   inkscape:export-ydpi="96"
   xmlns:inkscape="http://www.inkscape.org/namespaces/inkscape"
   xmlns:sodipodi="http://sodipodi.sourceforge.net/DTD/sodipodi-0.dtd"
   xmlns="http://www.w3.org/2000/svg"
   xmlns:svg="http://www.w3.org/2000/svg">
  <defs
     id="defs437" />
  <sodipodi:namedview
     id="namedview435"
     pagecolor="#ffffff"
     bordercolor="#999999"
     borderopacity="1"
     inkscape:showpageshadow="0"
     inkscape:pageopacity="0"
     inkscape:pagecheckerboard="0"
     inkscape:deskcolor="#d1d1d1"
     showgrid="false"
     inkscape:zoom="2.2440414"
     inkscape:cx="151.51236"
     inkscape:cy="157.30548"
     inkscape:window-width="1920"
     inkscape:window-height="991"
     inkscape:window-x="-9"
     inkscape:window-y="-9"
     inkscape:window-maximized="1"
     inkscape:current-layer="g439" />
  <g
     inkscape:groupmode="layer"
     inkscape:label="Image"
     id="g439">
    <path
       style="display:inline;fill:#0f7156;stroke:none;stroke-width:1.33333"
       d="m 170.66666,276 20,21.33333 H 75.999998 v 1.33334 C 118.79986,321.46533 160.77333,327.54 208,316 L 193.33333,297.33333 H 228 l 21.33333,-1.68266 24,-19.65067 z"
       id="path3394" />
    <path
       style="display:inline;fill:#0f7156;stroke:none;stroke-width:1.33333"
       d="m 138.66666,242.66667 8,10.66666 H 30.666666 c 3.869467,8.64267 10.520666,18.50934 20.002666,21.576 11.361733,3.676 26.8104,1.09067 38.663999,1.09067 h 79.999999 l -14.66667,-16 101.33333,-1.33333 33.95467,-2.168 10.04533,-13.832 H 138.66666"
       id="path3392" />
    <path
       style="display:inline;fill:#0f7156;stroke:none;stroke-width:1.33333"
       d="m 12,221.33333 7.921066,13.832 29.412266,2.168 H 130.66666 L 128,232 h 137.33333 c 14.664,0 38.89466,5.784 45.33333,-10.66667 H 12"
       id="path3390" />
    <path
       style="display:inline;fill:#0f7156;stroke:none;stroke-width:1.33333"
       d="m 5.3333332,198.66667 c 0.6813333,3.88666 1.2911333,8.29466 5.0855728,10.44133 5.134027,2.904 13.24856,1.55867 18.914427,1.55867 h 43.999999 c 8.780933,0 17.941333,-0.724 26.666666,0.37466 6.828932,0.86134 13.023202,3.39867 20.000002,3.584 44.82133,1.18534 89.828,0.0413 134.66666,0.0413 h 41.33333 c 8.132,-0.008 15.172,0.73866 20,-6.66667 H 181.33333 l -68,-0.0893 L 87.999998,198.948 5.3333332,198.66667"
       id="path3388" />
    <path
       style="display:inline;fill:#0f7156;stroke:none;stroke-width:1.33333"
       d="M 2.6666666,185.33333 C 5.2668399,195.33867 15.4832,193.332 24,193.33333 h 63.999998 c -8.6596,-9.288 -18.821999,-8 -30.666666,-8 H 2.6666666"
       id="path3386" />
    <path
       style="display:inline;fill:#666666;stroke:none;stroke-width:1.33333"
       d="m 0,160 v 5.33333 H 322.66666 V 160 H 0"
       id="path3384" />
    <path
       style="display:inline;fill:#0033cc;stroke:none;stroke-width:1.33333;fill-opacity:1"
       d="m 294.66666,130.66667 1.33333,6.66666 h 25.33334 l -1.33334,-6.66666 h -25.33333"
       id="path3382" />
    <path
       style="display:inline;fill:#0033cc;stroke:none;stroke-width:1.33333;fill-opacity:1"
       d="m 249.33333,113.33333 2.66666,9.33334 20,-5.5584 20,7.2428 L 318.66666,124 315.99999,113.33333 h -66.66666"
       id="path3380" />
    <path
       style="display:inline;fill:#0033cc;stroke:none;stroke-width:1.33333;fill-opacity:1"
       d="m 184,86.666667 6.66666,16.000003 c 10.60267,-6.087603 20.756,-11.229203 33.33334,-8.283603 7.92666,1.8564 14.44133,7.175203 22.66666,8.031603 20.912,2.1772 42.97333,0.252 64,0.252 -1.256,-4.684803 -2.672,-9.879203 -6.6,-13.103203 -6.816,-5.5932 -21.15733,-2.8968 -29.4,-2.8968 H 184"
       id="path3378" />
    <path
       style="display:inline;fill:#0033cc;stroke:none;stroke-width:1.33333;fill-opacity:1"
       d="M 12,101.33333 C 32.578133,90.4976 47.977332,90.6156 67.999999,102.66667 L 75.999998,86.666667 37.333333,86.6668 19.591866,88.832533 12,101.33333"
       id="path3376" />
    <path
       style="display:inline;fill:#0033cc;stroke:none;stroke-width:1.33333;fill-opacity:1"
       d="m 29.333333,69.333333 61.333332,-0.440666 38.666665,-10.1048 41.33333,10.321333 42.66667,0.224133 h 80 c -4.29334,-7.141466 -9.932,-16.200133 -17.82267,-19.766 -5.08,-2.295466 -11.41733,-1.565066 -16.844,-1.5672 L 229.33333,48 H 86.666665 c -11.6852,0 -29.315466,-3.236933 -39.975733,2.1696 -7.686266,3.898267 -13.047599,11.9956 -17.357599,19.163733"
       id="path3374" />
    <path
       style="display:inline;fill:#0033cc;stroke:none;stroke-width:1.33333;fill-opacity:1"
       d="M 74.666665,26.666667 H 247.99999 C 238.23866,17.660533 224.52,12.188253 212,8.1275867 179.98266,-2.25716 145.52,-2.49676 113.33333,7.2932133 99.934798,11.368533 85.066132,17.071467 74.666665,26.666667"
       id="path3317" />
  </g>
  <g
     inkscape:groupmode="layer"
     id="layer2"
     inkscape:label="vector" />
</svg>
